<?xml version="1.0" encoding="UTF-8"?>
<svg class="center__svg" width="30px" height="100%" version="1.0" viewBox="0 0 357.000000 412.000000" xmlns="http://www.w3.org/2000/svg">
 <g transform="translate(0 412) scale(.1 -.1)">
  <path d="m2693 4101c-39-24-53-49-53-93 0-72-50-77-124-14-28 23-66 51-83 60-40 20-42 11-13-64 20-50 18-55-18-51-7 1-38 18-70 36-38 23-70 35-94 35-48 0-49-17-3-59 56-51 43-91-30-91-22 0-54 4-72 9-69 20-40-45 42-93 25-15 45-33 45-41 0-19-62-45-107-45-68 0-51-53 24-71 24-6 46-16 49-21 13-21-8-55-47-77-23-13-50-32-60-42-25-25-24-74 2-100 19-19 29-21 76-16 73 8 142 43 226 114 107 91 128 104 161 101 49-5 54-26 28-125-16-61-22-116-22-179 0-79-4-101-29-160-51-121-64-187-58-305 3-58 2-110-1-116-12-18-45-30-101-38-45-6-63-16-115-59-81-69-111-88-133-84-17 3-18 19-18 218 0 237-5 265-78 403-99 189-333 370-574 444-81 25-102 27-268 27-186 1-229-5-367-53-102-36-283-130-308-160-3-4-18-15-33-24-53-34-179-161-238-240-251-338-293-791-123-1317 43-133 126-305 202-420 53-79 205-250 223-250 4 0-12 35-37 78-85 150-207 469-264 687-86 334-87 648-3 895 121 354 380 567 745 611 235 29 523-51 664-183 68-64 126-150 127-190 2-30-1-33-31-36-29-3-41 5-115 81-45 46-102 97-127 114-208 141-509 138-807-9-151-74-276-217-336-385-46-129-60-224-60-413 0-306 66-577 209-861 44-89 149-259 159-259 2 0-5 24-16 53-162 408-201 549-234 842-23 204-17 352 23 540 14 68 70 171 124 230 110 120 243 192 413 221 87 15 113 15 200 5 271-33 546-219 558-376 2-24-2-31-21-33-18-3-40 14-95 71-119 123-307 214-477 231-210 22-457-119-553-314-58-119-70-189-64-365 12-324 107-656 252-875 20-30 34-46 31-35s-21 74-40 140-44 161-56 210c-11 50-23 99-26 110-18 71-33 228-34 335 0 198 34 359 100 465 39 63 121 128 196 155 93 34 256 34 352 2 170-58 332-192 332-274 0-60-43-54-110 16s-181 143-262 167c-134 41-242 14-345-87-70-69-114-152-144-274-40-157-16-368 66-588 38-101 98-222 90-182-34 179-56 480-44 614 19 211 66 318 164 369 87 46 277 15 392-64 87-60 139-150 114-198-21-37-54-26-117 40-33 35-81 72-109 85-58 27-141 32-183 10-129-67-183-296-132-558 17-86 61-232 74-245 2-2 6 88 9 199 6 248 24 323 94 397l42 44 68-6c88-9 136-44 141-104s-16-73-74-45c-24 12-53 22-63 22-48 0-111-130-111-234 0-41 27-156 39-169 5-5 11 6 15 23 3 17 19 45 36 62 27 26 35 29 68 23 59-10 95-37 118-85 12-25 34-72 50-105 39-80 133-204 197-259 52-44 157-106 181-106 26 0 66-53 82-107 22-74 14-272-16-388-11-44-20-105-20-135s-3-72-6-92c-8-46-65-115-111-134-47-20-43-42 10-46 42-3 42-3 42-43 0-45 14-35-177-125-127-60-158-85-158-126 0-22 2-21 56 11 131 79 291 108 393 71 58-21 264-151 313-197 34-33 38-34 40-15 4 61-12 84-119 164-34 26-63 51-63 55 0 14 143-4 189-24l43-19-6 28c-13 53-56 70-266 102-125 19-114 4-106 144 3 67 13 149 22 182 20 79 72 169 129 224 55 52 249 270 267 300 7 11 17 20 22 20 13 0-1-182-18-233-37-111-30-137 42-168 52-23 50-20 151-144l73-89-5-58c-7-76 6-87 64-57l43 21 18-22c27-34 22-52-25-85-23-16-49-35-57-42-8-6-48-37-87-68-69-53-73-58-73-96 0-21 2-39 5-39s19 15 37 34c21 22 84 58 174 100l141 66 124-35c169-49 269-84 302-107l27-19v26c0 38-38 67-142 109-51 20-99 40-106 45-19 12 217 21 247 10 30-12 36-6 20 19-30 47-65 56-225 57-150 1-151 2-192 31-23 16-119 107-213 202-170 172-171 174-166 212 8 60 199 354 247 380 10 5 51 22 91 36 214 77 411 224 515 385 159 245 146 632-33 996l-55 112 35 34c46 46 62 108 43 170-19 64-58 110-132 157-36 22-73 55-84 73-25 41-35 109-24 166 8 43 12 47 54 61 56 19 90 38 90 49 0 5-16 12-35 15-39 8-91 47-100 76-14 44 62 129 141 159l49 19-40 11c-89 24-158 5-340-97-24-13-51-8-58 11-2 7 2 50 9 97 27 163-4 239-118 290-71 31-127 35-165 11zm189-543c-17-17-15-84 4-102 8-9 24-16 35-16 32 0 12-19-27-26-45-8-81 8-95 43-15 39-3 71 34 93 37 23 69 28 49 8zm193-275c-9-63-27-96-71-129-30-23-46-28-98-28-54-1-68 3-99 27-61 46-90 105-39 78 12-6 51-11 88-11 80 0 139 24 181 75 15 18 32 34 37 34 4 1 5-20 1-46zm123-268c31-35 52-89 52-135 0-83-56-166-120-176-31-5-39-13-60-57-14-28-37-60-52-71-29-21-119-33-163-22-34 9-75 53-75 80 0 18-7 22-36 24-50 4-91 27-109 62-19 36-19 44 0 106 14 49 92 181 101 172 2-3-5-31-16-64l-20-59 46 50c49 54 52 46 13-42-10-24-16-43-14-43 1 0 18 23 36 52 36 56 48 49 30-18-15-55-6-53 23 5 15 28 29 51 32 51 4 0 3-25-1-55-3-30-4-55-2-55 3 0 14 24 24 53l18 52 5-65 5-65 19 58c10 31 23 57 27 57 5 0 9-24 10-52l1-53 10 45c15 75 20 78 34 25l12-50 1 47c2 80 12 89 37 33l23-50 1 65c1 54 3 62 13 47 29-45 59-80 53-62-4 10-10 40-13 65-6 43-5 44 12 30s17-14 7 7c-28 52-7 57 36 8zm184-522c26-15 34-26 36-55 3-30-1-40-22-54-23-14-26-23-26-75 0-47-5-63-24-86-21-25-32-28-98-31l-75-4-13-37c-23-67-94-121-159-121-45 0-123 27-185 65-59 35-60 36-98 20-68-27-129-15-200 38-18 13-45 27-60 31-46 11-88 54-88 91 0 45 29 77 89 99 52 18 75 16 53-6-28-28-9-27 30 1 23 17 44 29 46 26 2-2-3-22-12-45-23-58-21-59 27-12 46 45 60 46 47 4-5-15-11-40-15-57-5-26-1-23 32 24l38 54 5-53 5-54 19 52c10 29 22 52 26 52 5 0 12-25 15-55 9-66 21-64 30 6 4 27 12 48 17 47 6-2 21-28 34-58l23-55 2 45c1 25 1 51 0 59-4 26 22 4 46-39l24-45-7 48c-8 59 3 60 51 5 23-27 34-36 31-23-3 11-8 43-11 70l-6 50 41-45 42-45-21 39c-12 21-20 41-17 43 3 3 24-9 47-26 24-17 45-29 47-26 2 2-10 23-29 46-31 40-32 41-8 34 13-4 42-19 64-33l40-24-37 39c-21 21-38 42-38 45s23-2 52-13c28-10 54-16 57-14 2 3 0 5-5 5-11 0-64 45-64 54 0 6 33 3 95-10 11-2 5 3-12 11-18 8-33 18-33 21 0 14 121-5 152-23zm-1535-137c32-30 55-58 50-62-4-4-17 2-30 14-32 30-43 27-18-5 27-33 20-41-16-18-27 18-28 18-12-1 34-41 32-48-7-24l-39 23 30-33c24-26 26-32 10-26-46 18-49 18-27 2 30-23 28-38-4-26-39 15-41 12-9-16l30-25-30 5-30 6 28-15c36-21 34-29-5-22l-33 6 35-16 35-17-30-6-30-7 33-8c37-9 38-26 1-36-23-7-22-7 6-8 17-1 38-8 48-15 17-13 17-15-5-30-45-32-145-13-178 33-11 16-20 43-20 61 0 22-8 38-25 52-70 55-39 198 44 198 12 0 21 4 21 9 0 4 11 20 25 35 41 44 83 37 152-28zm311 5c38-19 108-88 99-98-3-2-18 4-33 14l-28 18 17-25c25-36 21-47-8-20-28 26-34 17-8-12 20-23 6-23-27-1l-25 16 23-24c12-14 22-29 22-32 0-4-10-2-22 4-23 12-23 12-4-10 22-24 19-25-21-11l-28 10 23-19c12-11 22-22 22-26 0-3-10-3-22 0-19 5-17 3 7-15l30-21-35 5-35 5 33-11c39-13 42-28 5-29l-28-1 30-7c35-7 36-23 3-33-22-6-21-6 5-7 15-1 27-5 27-11 0-5 7-10 15-10 23 0 18-16-10-28-59-27-144 0-170 54-9 19-14 43-11 52 4 13-4 25-25 41-30 22-31 26-27 82 5 66 20 88 63 93 18 2 33 12 42 30 11 22 36 40 61 45 1 1 19-8 40-18zm337-245c37-24 48-53 42-107-12-102-88-203-184-245-42-19-71-24-133-24-43 0-90 4-104 10-18 6-33 5-56-6-127-64-360-26-433 70-31 40-51 124-38 158 9 23 9 23 20-5 6-16 11-32 11-36 0-5 18-27 39-49 55-56 120-70 227-48 42 9 103 28 136 43l59 26 42-20c65-32 101-36 162-18 62 18 128 70 142 113 17 49-11 100-70 128-23 11-33 21-26 25 21 12 138 2 164-15zm165-183c0-5-11-28-25-52-14-23-25-45-25-48 0-2 20 12 45 33 51 42 55 37 20-25-35-60-31-63 15-11 45 50 54 36 19-31-11-23-19-43-17-45s21 19 42 47 40 48 43 45-2-26-11-52c-21-62-15-66 15-9 13 25 27 45 31 45 11 0 10-6-7-70l-14-55 19 25c11 14 20 29 20 33 0 5 10 21 21 35l22 27-6-55-6-55 22 54c16 43 22 50 28 35 4-10 5-32 2-49-4-23-2-26 6-15 5 8 13 32 16 52 9 52 22 56 30 8s25-53 26-7c0 17 4 41 8 52 7 17 12 13 34-30l26-50-4 58c-5 61-1 68 22 40 14-17 14-17 9 0-3 9-9 24-12 33-13 31 29 10 50-25 29-50 26-145-5-202-31-55-66-80-123-86-28-4-46-11-46-19 0-7-15-28-33-47-43-46-101-62-169-48-72 16-86 26-101 77-11 40-18 48-51 59-58 20-86 52-86 97 0 52 23 103 73 163 23 27 46 55 52 62 11 14 25 17 25 6zm-630-298c0-4-7-20-16-38l-17-32 24 21c45 40 54 39 30-2l-23-39 31 29c35 34 37 31 16-22l-16-37 30 35c31 36 38 31 21-17-9-26-9-26 5-9 8 10 16 24 18 30s8 8 12 4 2-21-4-39c-16-46-8-46 15 0 21 43 37 45 29 3-5-23-3-21 11 8l17 35 7-30 8-30 1 27c1 37 19 45 27 11 9-45 12-50 13-23 1 14 4 36 8 49 6 23 6 23 25-10l19-34-5 38c-5 35 6 51 18 25 3-7 3-1 0 15-7 33 10 36 27 6 22-42 29-83 19-118-5-20-9-40-9-44 0-22-58-57-95-57-18 0-30-9-41-30-41-80-196-80-212 1-4 23-15 34-43 45-54 22-69 61-44 117 25 58 94 139 94 112z"/>
 </g>
</svg>
